# xmcd
#
# Track frame offsets: 
#        300
#        10260
#        24562
#        41733
#        64265
#        80845
#        97200
#        114295
#        131476
#        151238
#        167242
#        183812
#        198408
#        213149
#
# Disc length: 3076 seconds
#
# Revision: 2
# Processed by: cddbd v1.5.2PL0 Copyright (c) Steve Scherf et al.
# Submitted via: ExactAudioCopy v0.99pb5
#
DISCID=bc0c000e
DTITLE=Janiva Magness - My Bad Luck Soul
DYEAR=1996
DGENRE=General Blues
TTITLE0=My Bad Luck Soul
TTITLE1=Tears Of Joy
TTITLE2=What's The Matter With The Mill?
TTITLE3=Empty Bed Blues
TTITLE4=Take A Number
TTITLE5=She Never Gets A Minute Of Sleep
TTITLE6=The Mojo (Boogie)
TTITLE7=It's Love Baby (Twenty Four Hours A Day)
TTITLE8=I Wanna Know
TTITLE9=Happy Hour
TTITLE10=Baby, Baby, Every Night
TTITLE11=She's A Little Bit Much
TTITLE12=Billie's Blues
TTITLE13=Seven Long Days
EXTD=
EXTT0=
EXTT1=
EXTT2=
EXTT3=
EXTT4=
EXTT5=
EXTT6=
EXTT7=
EXTT8=
EXTT9=
EXTT10=
EXTT11=
EXTT12=
EXTT13=
PLAYORDER=
